<?xml version="1.0" encoding="UTF-8"?>
<svg width="64" height="64" viewBox="0 0 64 64" xmlns="http://www.w3.org/2000/svg">
  <!-- Background -->
  <rect width="64" height="64" fill="white" rx="4"/>

  <!-- QR Code Pattern (simplified) -->
  <!-- Top-left corner square -->
  <rect x="6" y="6" width="22" height="22" fill="none" stroke="black" stroke-width="3"/>
  <rect x="11" y="11" width="12" height="12" fill="black"/>

  <!-- Top-right corner square -->
  <rect x="36" y="6" width="22" height="22" fill="none" stroke="black" stroke-width="3"/>
  <rect x="41" y="11" width="12" height="12" fill="black"/>

  <!-- Bottom-left corner square -->
  <rect x="6" y="36" width="22" height="22" fill="none" stroke="black" stroke-width="3"/>
  <rect x="11" y="41" width="12" height="12" fill="black"/>

  <!-- Random QR pattern elements -->
  <rect x="32" y="32" width="4" height="4" fill="black"/>
  <rect x="32" y="38" width="4" height="4" fill="black"/>
  <rect x="38" y="32" width="4" height="4" fill="black"/>
  <rect x="44" y="32" width="4" height="4" fill="black"/>
  <rect x="50" y="32" width="4" height="4" fill="black"/>
  <rect x="56" y="32" width="4" height="4" fill="black"/>

  <rect x="32" y="44" width="4" height="4" fill="black"/>
  <rect x="38" y="44" width="4" height="4" fill="black"/>
  <rect x="44" y="38" width="4" height="4" fill="black"/>
  <rect x="50" y="44" width="4" height="4" fill="black"/>
  <rect x="56" y="44" width="4" height="4" fill="black"/>

  <rect x="32" y="50" width="4" height="4" fill="black"/>
  <rect x="38" y="50" width="4" height="4" fill="black"/>
  <rect x="44" y="50" width="4" height="4" fill="black"/>
  <rect x="50" y="56" width="4" height="4" fill="black"/>
  <rect x="56" y="50" width="4" height="4" fill="black"/>

  <!-- Location pin icon overlay (small) -->
  <circle cx="48" cy="48" r="8" fill="#3498db" opacity="0.9"/>
  <path d="M 48 44 L 48 52 M 46 48 L 50 48" stroke="white" stroke-width="2" stroke-linecap="round"/>
</svg>
